<svg xmlns="http://www.w3.org/2000/svg" viewBox="0 0 64 64"><path fill="#dedede" d="M13.33 5.33a7.98 7.98 0 00-8 8v37.34a7.98 7.98 0 008 8h37.34a7.98 7.98 0 008-8V13.33a7.98 7.98 0 00-8-8zm16 17.34a6.66 6.66 0 10-13.32-.01 6.66 6.66 0 0013.32 0zm-5.33 0a1.33 1.33 0 11-2.67 0 1.33 1.33 0 012.67 0zm-4.23 30.66l22.9-22.9L53.33 41.1v9.57a2.65 2.65 0 01-2.66 2.66zm33.56-19.77l-8.78-8.78a2.66 2.66 0 00-3.77 0L12.4 53.16a2.65 2.65 0 01-1.73-2.5V13.34a2.65 2.65 0 012.66-2.66h37.34a2.65 2.65 0 012.66 2.66z"/></svg>